#!OML:ASF I:\Actors\actors\Patient Classification 2\Patient 1\Session 1\actor1.ASF
:FULLY-SPECIFIED
:DEGREES
645
root -0.166236 17.9867 5.16564 18.829 -7.04448 -6.34397
lowerback 17.5614 -2.38566 2.0668
upperback -2.25029 -2.54976 1.47772
thorax -12.4337 -1.26735 1.17723
lowerneck -7.6476 -10.3492 -7.11938
upperneck 16.9358 -15.3025 11.2465
head 7.91385 -6.90964 3.29572
rclavicle -6.08281e-014 -7.15625e-015
rhumerus -52.5198 8.9496 -91.6923
rradius 121.27
rwrist 15.5753
rhand -8.10519 -48.2148
rfingers 7.12502
rthumb 17.8076 -77.4194
lclavicle -6.08281e-014 -7.15625e-015
lhumerus -44.3047 -16.0459 94.8245
lradius 128.902
lwrist -12.6708
lhand 22.7571 0.439475
lfingers 7.12502
lthumb 47.0943 23.064
rfemur -33.4497 -9.7662 20.8944
rtibia 34.3377
rfoot -15.8402 5.73673
rtoes -13.8675
lfemur -41.2629 16.5572 -12.7564
ltibia 49.5858
lfoot -23.7755 -1.15035
ltoes -56.377
646
root -0.149841 17.98 5.14944 19.1356 -7.01588 -6.41187
lowerback 17.4516 -2.43535 1.9225
upperback -2.01277 -2.6353 1.64168
thorax -12.0827 -1.29213 1.44876
lowerneck -7.64487 -10.2458 -6.98819
upperneck 16.1899 -15.0566 11.1239
head 7.62293 -6.81848 3.27375
rclavicle -1.35174e-014 -1.98785e-014
rhumerus -52.1454 9.18557 -91.5219
rradius 121.255
rwrist 15.4235
rhand -8.12307 -47.9188
rfingers 7.12502
rthumb 17.7904 -77.1251
lclavicle -1.35174e-014 -1.98785e-014
lhumerus -44.0037 -15.8298 94.9097
lradius 128.887
lwrist -12.8357
lhand 22.7084 0.380528
lfingers 7.12502
lthumb 47.0493 23.025
rfemur -33.9282 -9.76208 20.9915
rtibia 34.4718
rfoot -15.8002 5.69005
rtoes -13.82
lfemur -41.7989 16.5586 -12.8278
ltibia 49.7934
lfoot -23.7358 -1.23373
ltoes -56.1658
647
root -0.131999 17.9722 5.13116 19.4895 -6.97261 -6.46906
lowerback 17.6321 -2.47131 1.96755
upperback -2.01144 -2.66071 1.69665
thorax -12.1862 -1.30336 1.50017
lowerneck -7.44734 -10.1748 -6.83514
upperneck 15.5611 -14.8823 10.9845
head 7.34258 -6.76517 3.24384
rclavicle -4.09496e-014 2.22639e-014
rhumerus -52.1965 9.22035 -91.5208
rradius 121.343
rwrist 15.541
rhand -7.98006 -48.4898
rfingers 7.12502
rthumb 17.928 -77.6835
lclavicle -4.09496e-014 2.22639e-014
lhumerus -44.1088 -15.7676 95.0666
lradius 128.935
lwrist -12.9346
lhand 22.7209 0.169015
lfingers 7.12502
lthumb 47.0609 22.8084
rfemur -34.4862 -9.81003 21.0997
rtibia 34.6303
rfoot -15.7131 5.67054
rtoes -13.824
lfemur -42.4176 16.5918 -12.94
ltibia 50.0176
lfoot -23.7659 -1.31279
ltoes -56.0722
648
root -0.113342 17.9627 5.11135 19.8729 -6.96786 -6.51264
lowerback 17.778 -2.47502 2.01153
upperback -1.98094 -2.64825 1.72227
thorax -12.2376 -1.29847 1.50627
lowerneck -7.43001 -10.1414 -6.63771
upperneck 15.0707 -14.7618 10.7663
head 7.13671 -6.72879 3.16541
rclavicle 1.23246e-014 -6.36111e-015
rhumerus -52.1901 9.20698 -91.5442
rradius 121.41
rwrist 15.7677
rhand -7.77976 -49.1564
rfingers 7.12502
rthumb 18.1207 -78.3323
lclavicle 1.23246e-014 -6.36111e-015
lhumerus -44.1599 -15.7466 95.2064
lradius 128.965
lwrist -12.948
lhand 22.8215 -0.172022
lfingers 7.12502
lthumb 47.1539 22.4261
rfemur -35.113 -9.89526 21.2023
rtibia 34.8229
rfoot -15.5945 5.70701
rtoes -13.8786
lfemur -43.099 16.7142 -13.1191
ltibia 50.2602
lfoot -23.795 -1.3047
ltoes -56.1414
649
root -0.0950328 17.9516 5.09067 20.2567 -6.90241 -6.49635
lowerback 17.7415 -2.48838 2.06561
upperback -1.82622 -2.66081 1.69719
thorax -12.0436 -1.30998 1.44293
lowerneck -7.516 -10.1226 -6.39782
upperneck 14.5543 -14.6727 10.605
head 6.94658 -6.69785 3.09054
rclavicle 7.55382e-015 -1.59028e-014
rhumerus -51.9846 9.15127 -91.5805
rradius 121.425
rwrist 15.8873
rhand -7.72193 -49.4238
rfingers 7.12502
rthumb 18.1764 -78.5946
lclavicle 7.55382e-015 -1.59028e-014
lhumerus -44.0057 -15.7993 95.2259
lradius 128.97
lwrist -12.978
lhand 22.9311 -0.380513
lfingers 7.12502
lthumb 47.2552 22.1725
rfemur -35.7654 -10.0731 21.2665
rtibia 35.0477
rfoot -15.4842 5.79941
rtoes -13.6596
lfemur -43.826 16.8148 -13.3662
ltibia 50.5138
lfoot -23.7638 -1.25119
ltoes -56.2856
650
root -0.0779902 17.9401 5.06803 20.6565 -6.74239 -6.48038
lowerback 17.4228 -2.54955 2.21405
upperback -1.50353 -2.73453 1.63201
thorax -11.5029 -1.35975 1.27772
lowerneck -7.63133 -10.0821 -6.18212
upperneck 13.9071 -14.5643 10.5976
head 6.73347 -6.6517 3.07047
rclavicle 1.11319e-014 8.74653e-015
rhumerus -51.4696 9.14674 -91.6603
rradius 121.35
rwrist 15.8671
rhand -7.90144 -49.6215
rfingers 7.12502
rthumb 18.0037 -78.8083
lclavicle 1.11319e-014 8.74653e-015
lhumerus -43.5925 -15.9086 95.0598
lradius 128.992
lwrist -13.019
lhand 23.0098 -0.437984
lfingers 7.12502
lthumb 47.3279 22.0824
rfemur -36.4447 -10.3093 21.367
rtibia 35.3012
rfoot -15.3862 5.91151
rtoes -13.2873
lfemur -44.5941 16.8248 -13.5803
ltibia 50.7709
lfoot -23.7094 -1.28889
ltoes -56.3064
651
root -0.0615638 17.9275 5.04214 21.088 -6.54881 -6.49676
lowerback 17.6713 -2.60379 2.31306
upperback -1.55747 -2.77052 1.66976
thorax -11.7114 -1.37961 1.28822
lowerneck -7.55752 -10.0445 -6.11
upperneck 13.5378 -14.4453 10.3885
head 6.57063 -6.61955 3.0168
rclavicle 1.23246e-014 -3.97569e-014
rhumerus -51.6089 9.17715 -91.6994
rradius 121.456
rwrist 15.8698
rhand -7.90669 -49.5906
rfingers 7.12502
rthumb 17.9986 -78.7778
lclavicle 1.23246e-014 -3.97569e-014
lhumerus -43.8488 -15.904 95.2236
lradius 129.079
lwrist -13.0163
lhand 22.9027 -0.456444
lfingers 7.12502
lthumb 47.229 22.1082
rfemur -37.1799 -10.5622 21.5328
rtibia 35.5774
rfoot -15.301 6.0046
rtoes -13.2391
lfemur -45.4008 16.7842 -13.7449
ltibia 51.0308
lfoot -23.6522 -1.42027
ltoes -56.1392
